<?xml version="1.0" encoding="utf-8"?>
<!-- Generator: Adobe Illustrator 22.1.0, SVG Export Plug-In . SVG Version: 6.00 Build 0)  -->
<svg version="1.1" id="Ebene_1" xmlns="http://www.w3.org/2000/svg" xmlns:xlink="http://www.w3.org/1999/xlink" x="0px" y="0px"
	 viewBox="0 0 32 32" style="enable-background:new 0 0 32 32;" xml:space="preserve">
<style type="text/css">
	.st0{fill:#333333;}
</style>
<title></title>
<g id="menu_">
	<path class="st0" d="M2,7c0,0.6,0.4,1,1,1h26c0.6,0,1-0.4,1-1s-0.4-1-1-1H3C2.4,6,2,6.4,2,7z"/>
	<path class="st0" d="M30,16c0-0.6-0.4-1-1-1H16c-0.6,0-1,0.4-1,1c0,0.6,0.4,1,1,1h13C29.6,17,30,16.6,30,16z"/>
	<path class="st0" d="M6,25c0,0.6,0.4,1,1,1h22c0.6,0,1-0.4,1-1s-0.4-1-1-1H7C6.4,24,6,24.4,6,25z"/>
</g>
</svg>
